# Tiled2Unity generated file. Do not modify by hand.
# Wavefront file for 'S3-3-O_mesh_0001.obj'

# Vertices (Count = 32)
v -17.7505 -3.287129 0
v -18.07921 -3.287129 0
v -18.07921 -2.958416 0
v -17.7505 -2.958416 0
v -17.7505 -3.615842 0
v -18.07921 -3.615842 0
v -18.07921 -3.287129 0
v -17.7505 -3.287129 0
v -17.7505 -3.944555 0
v -18.07921 -3.944555 0
v -18.07921 -3.615842 0
v -17.7505 -3.615842 0
v -1.314852 -6.574258 0
v -1.643564 -6.574258 0
v -1.643564 -6.245545 0
v -1.314852 -6.245545 0
v -1.314852 -6.90297 0
v -1.643564 -6.90297 0
v -1.643564 -6.574258 0
v -1.314852 -6.574258 0
v -1.314852 -7.231683 0
v -1.643564 -7.231683 0
v -1.643564 -6.90297 0
v -1.314852 -6.90297 0
v -1.314852 -7.560396 0
v -1.643564 -7.560396 0
v -1.643564 -7.231683 0
v -1.314852 -7.231683 0
v -1.314852 -7.889109 0
v -1.643564 -7.889109 0
v -1.643564 -7.560396 0
v -1.314852 -7.560396 0

# Texture cooridinates (Count = 4)
vt 0 0
vt 1 0
vt 1 1
vt 0 1

# Normal
vn 0 0 -1

# Mesh description
g S3-3-O_mesh_0001

# Faces
f 1/1/1 2/2/1 3/3/1 4/4/1
f 5/1/1 6/2/1 7/3/1 8/4/1
f 9/1/1 10/2/1 11/3/1 12/4/1
f 13/1/1 14/2/1 15/3/1 16/4/1
f 17/1/1 18/2/1 19/3/1 20/4/1
f 21/1/1 22/2/1 23/3/1 24/4/1
f 25/1/1 26/2/1 27/3/1 28/4/1
f 29/1/1 30/2/1 31/3/1 32/4/1

