# Tiled2Unity generated file. Do not modify by hand.
# Wavefront file for 'S3-3-O_mesh_0011.obj'

# Vertices (Count = 36)
v -19.72277 -1.643564 0
v -20.05149 -1.643564 0
v -20.05149 -1.19802 0
v -19.72277 -1.19802 0
v -19.39406 -1.972277 0
v -19.72277 -1.972277 0
v -19.72277 -1.526733 0
v -19.39406 -1.526733 0
v -13.80594 -2.30099 0
v -14.13465 -2.30099 0
v -14.13465 -1.855446 0
v -13.80594 -1.855446 0
v -13.47723 -2.629703 0
v -13.80594 -2.629703 0
v -13.80594 -2.184159 0
v -13.47723 -2.184159 0
v -13.14852 -2.958416 0
v -13.47723 -2.958416 0
v -13.47723 -2.512871 0
v -13.14852 -2.512871 0
v -11.50495 -3.287129 0
v -11.83366 -3.287129 0
v -11.83366 -2.841584 0
v -11.50495 -2.841584 0
v -11.17624 -3.615842 0
v -11.50495 -3.615842 0
v -11.50495 -3.170297 0
v -11.17624 -3.170297 0
v -10.84752 -3.944555 0
v -11.17624 -3.944555 0
v -11.17624 -3.49901 0
v -10.84752 -3.49901 0
v -10.51881 -4.273267 0
v -10.84752 -4.273267 0
v -10.84752 -3.827723 0
v -10.51881 -3.827723 0

# Texture cooridinates (Count = 4)
vt 0 0
vt 1 0
vt 1 1
vt 0 1

# Normal
vn 0 0 -1

# Mesh description
g S3-3-O_mesh_0011

# Faces
f 1/1/1 2/2/1 3/3/1 4/4/1
f 5/1/1 6/2/1 7/3/1 8/4/1
f 9/1/1 10/2/1 11/3/1 12/4/1
f 13/1/1 14/2/1 15/3/1 16/4/1
f 17/1/1 18/2/1 19/3/1 20/4/1
f 21/1/1 22/2/1 23/3/1 24/4/1
f 25/1/1 26/2/1 27/3/1 28/4/1
f 29/1/1 30/2/1 31/3/1 32/4/1
f 33/1/1 34/2/1 35/3/1 36/4/1

