# Tiled2Unity generated file. Do not modify by hand.
# Wavefront file for 'S3-3-O_mesh_0009.obj'

# Vertices (Count = 120)
v -20.05149 -1.314852 0
v -20.3802 -1.314852 0
v -20.3802 -1.213861 0
v -20.05149 -1.213861 0
v -20.3802 -1.314852 0
v -20.70891 -1.314852 0
v -20.70891 -1.213861 0
v -20.3802 -1.213861 0
v -20.70891 -1.314852 0
v -21.03762 -1.314852 0
v -21.03762 -1.213861 0
v -20.70891 -1.213861 0
v -21.03762 -1.314852 0
v -21.36634 -1.314852 0
v -21.36634 -1.213861 0
v -21.03762 -1.213861 0
v -21.36634 -1.314852 0
v -21.69505 -1.314852 0
v -21.69505 -1.213861 0
v -21.36634 -1.213861 0
v -21.69505 -1.314852 0
v -22.02376 -1.314852 0
v -22.02376 -1.213861 0
v -21.69505 -1.213861 0
v -22.02376 -1.314852 0
v -22.35248 -1.314852 0
v -22.35248 -1.213861 0
v -22.02376 -1.213861 0
v -22.35248 -1.314852 0
v -22.68119 -1.314852 0
v -22.68119 -1.213861 0
v -22.35248 -1.213861 0
v -22.68119 -1.314852 0
v -23.0099 -1.314852 0
v -23.0099 -1.213861 0
v -22.68119 -1.213861 0
v -23.0099 -1.314852 0
v -23.33862 -1.314852 0
v -23.33862 -1.213861 0
v -23.0099 -1.213861 0
v -23.33862 -1.314852 0
v -23.66733 -1.314852 0
v -23.66733 -1.213861 0
v -23.33862 -1.213861 0
v -23.66733 -1.314852 0
v -23.99604 -1.314852 0
v -23.99604 -1.213861 0
v -23.66733 -1.213861 0
v -23.99604 -1.314852 0
v -24.32475 -1.314852 0
v -24.32475 -1.213861 0
v -23.99604 -1.213861 0
v -24.32475 -1.314852 0
v -24.65347 -1.314852 0
v -24.65347 -1.213861 0
v -24.32475 -1.213861 0
v -24.65347 -1.314852 0
v -24.98218 -1.314852 0
v -24.98218 -1.213861 0
v -24.65347 -1.213861 0
v -14.13465 -1.972277 0
v -14.46337 -1.972277 0
v -14.46337 -1.871287 0
v -14.13465 -1.871287 0
v -18.07921 -1.972277 0
v -18.40792 -1.972277 0
v -18.40792 -1.871287 0
v -18.07921 -1.871287 0
v -18.40792 -1.972277 0
v -18.73663 -1.972277 0
v -18.73663 -1.871287 0
v -18.40792 -1.871287 0
v -18.73663 -1.972277 0
v -19.06535 -1.972277 0
v -19.06535 -1.871287 0
v -18.73663 -1.871287 0
v -19.06535 -1.972277 0
v -19.39406 -1.972277 0
v -19.39406 -1.871287 0
v -19.06535 -1.871287 0
v -11.83366 -2.958416 0
v -12.16238 -2.958416 0
v -12.16238 -2.857426 0
v -11.83366 -2.857426 0
v -12.16238 -2.958416 0
v -12.49109 -2.958416 0
v -12.49109 -2.857426 0
v -12.16238 -2.857426 0
v -12.49109 -2.958416 0
v -12.8198 -2.958416 0
v -12.8198 -2.857426 0
v -12.49109 -2.857426 0
v -12.8198 -2.958416 0
v -13.14852 -2.958416 0
v -13.14852 -2.857426 0
v -12.8198 -2.857426 0
v -2.30099 -4.930693 0
v -2.629703 -4.930693 0
v -2.629703 -4.829703 0
v -2.30099 -4.829703 0
v -2.629703 -4.930693 0
v -2.958416 -4.930693 0
v -2.958416 -4.829703 0
v -2.629703 -4.829703 0
v -2.958416 -4.930693 0
v -3.287129 -4.930693 0
v -3.287129 -4.829703 0
v -2.958416 -4.829703 0
v -3.287129 -4.930693 0
v -3.615842 -4.930693 0
v -3.615842 -4.829703 0
v -3.287129 -4.829703 0
v -3.615842 -4.930693 0
v -3.944555 -4.930693 0
v -3.944555 -4.829703 0
v -3.615842 -4.829703 0
v -3.944555 -4.930693 0
v -4.273267 -4.930693 0
v -4.273267 -4.829703 0
v -3.944555 -4.829703 0

# Texture cooridinates (Count = 4)
vt 0 0
vt 1 0
vt 1 1
vt 0 1

# Normal
vn 0 0 -1

# Mesh description
g S3-3-O_mesh_0009

# Faces
f 1/1/1 2/2/1 3/3/1 4/4/1
f 5/1/1 6/2/1 7/3/1 8/4/1
f 9/1/1 10/2/1 11/3/1 12/4/1
f 13/1/1 14/2/1 15/3/1 16/4/1
f 17/1/1 18/2/1 19/3/1 20/4/1
f 21/1/1 22/2/1 23/3/1 24/4/1
f 25/1/1 26/2/1 27/3/1 28/4/1
f 29/1/1 30/2/1 31/3/1 32/4/1
f 33/1/1 34/2/1 35/3/1 36/4/1
f 37/1/1 38/2/1 39/3/1 40/4/1
f 41/1/1 42/2/1 43/3/1 44/4/1
f 45/1/1 46/2/1 47/3/1 48/4/1
f 49/1/1 50/2/1 51/3/1 52/4/1
f 53/1/1 54/2/1 55/3/1 56/4/1
f 57/1/1 58/2/1 59/3/1 60/4/1
f 61/1/1 62/2/1 63/3/1 64/4/1
f 65/1/1 66/2/1 67/3/1 68/4/1
f 69/1/1 70/2/1 71/3/1 72/4/1
f 73/1/1 74/2/1 75/3/1 76/4/1
f 77/1/1 78/2/1 79/3/1 80/4/1
f 81/1/1 82/2/1 83/3/1 84/4/1
f 85/1/1 86/2/1 87/3/1 88/4/1
f 89/1/1 90/2/1 91/3/1 92/4/1
f 93/1/1 94/2/1 95/3/1 96/4/1
f 97/1/1 98/2/1 99/3/1 100/4/1
f 101/1/1 102/2/1 103/3/1 104/4/1
f 105/1/1 106/2/1 107/3/1 108/4/1
f 109/1/1 110/2/1 111/3/1 112/4/1
f 113/1/1 114/2/1 115/3/1 116/4/1
f 117/1/1 118/2/1 119/3/1 120/4/1

