# Tiled2Unity generated file. Do not modify by hand.
# Wavefront file for 'S3-2-F_mesh_0020.obj'

# Vertices (Count = 28)
v -10.51881 -6.90297 0
v -10.84752 -6.90297 0
v -10.84752 -6.574258 0
v -10.51881 -6.574258 0
v -11.50495 -6.90297 0
v -11.83366 -6.90297 0
v -11.83366 -6.574258 0
v -11.50495 -6.574258 0
v -12.49109 -6.90297 0
v -12.8198 -6.90297 0
v -12.8198 -6.574258 0
v -12.49109 -6.574258 0
v -13.14852 -6.90297 0
v -13.47723 -6.90297 0
v -13.47723 -6.574258 0
v -13.14852 -6.574258 0
v -13.80594 -6.90297 0
v -14.13465 -6.90297 0
v -14.13465 -6.574258 0
v -13.80594 -6.574258 0
v -16.76436 -6.90297 0
v -17.09307 -6.90297 0
v -17.09307 -6.574258 0
v -16.76436 -6.574258 0
v -21.36634 -6.90297 0
v -21.69505 -6.90297 0
v -21.69505 -6.574258 0
v -21.36634 -6.574258 0

# Texture cooridinates (Count = 4)
vt 0 0
vt 1 0
vt 1 1
vt 0 1

# Normal
vn 0 0 -1

# Mesh description
g S3-2-F_mesh_0020

# Faces
f 1/1/1 2/2/1 3/3/1 4/4/1
f 5/1/1 6/2/1 7/3/1 8/4/1
f 9/1/1 10/2/1 11/3/1 12/4/1
f 13/1/1 14/2/1 15/3/1 16/4/1
f 17/1/1 18/2/1 19/3/1 20/4/1
f 21/1/1 22/2/1 23/3/1 24/4/1
f 25/1/1 26/2/1 27/3/1 28/4/1

