# Tiled2Unity generated file. Do not modify by hand.
# Wavefront file for 'S3-1-O_mesh_0019.obj'

# Vertices (Count = 20)
v -16.76436 -2.629703 0
v -17.09307 -2.629703 0
v -17.09307 -2.184159 0
v -16.76436 -2.184159 0
v -17.09307 -2.958416 0
v -17.42178 -2.958416 0
v -17.42178 -2.512871 0
v -17.09307 -2.512871 0
v -30.5703 -2.958416 0
v -30.89901 -2.958416 0
v -30.89901 -2.512871 0
v -30.5703 -2.512871 0
v -17.42178 -3.287129 0
v -17.7505 -3.287129 0
v -17.7505 -2.841584 0
v -17.42178 -2.841584 0
v -30.89901 -3.287129 0
v -31.22772 -3.287129 0
v -31.22772 -2.841584 0
v -30.89901 -2.841584 0

# Texture cooridinates (Count = 4)
vt 0 0
vt 1 0
vt 1 1
vt 0 1

# Normal
vn 0 0 -1

# Mesh description
g S3-1-O_mesh_0019

# Faces
f 1/1/1 2/2/1 3/3/1 4/4/1
f 5/1/1 6/2/1 7/3/1 8/4/1
f 9/1/1 10/2/1 11/3/1 12/4/1
f 13/1/1 14/2/1 15/3/1 16/4/1
f 17/1/1 18/2/1 19/3/1 20/4/1

