# Tiled2Unity generated file. Do not modify by hand.
# Wavefront file for 'S3-1-O_mesh_0013.obj'

# Vertices (Count = 20)
v -13.14852 -2.30099 0
v -13.26535 -2.30099 0
v -13.26535 -2.19604 0
v -13.14852 -2.19604 0
v -22.35248 -2.30099 0
v -22.46931 -2.30099 0
v -22.46931 -2.19604 0
v -22.35248 -2.19604 0
v -25.31089 -2.30099 0
v -25.42772 -2.30099 0
v -25.42772 -2.19604 0
v -25.31089 -2.19604 0
v -23.33862 -2.629703 0
v -23.45545 -2.629703 0
v -23.45545 -2.524753 0
v -23.33862 -2.524753 0
v -24.32475 -2.629703 0
v -24.44159 -2.629703 0
v -24.44159 -2.524753 0
v -24.32475 -2.524753 0

# Texture cooridinates (Count = 4)
vt 0 0
vt 1 0
vt 1 1
vt 0 1

# Normal
vn 0 0 -1

# Mesh description
g S3-1-O_mesh_0013

# Faces
f 1/1/1 2/2/1 3/3/1 4/4/1
f 5/1/1 6/2/1 7/3/1 8/4/1
f 9/1/1 10/2/1 11/3/1 12/4/1
f 13/1/1 14/2/1 15/3/1 16/4/1
f 17/1/1 18/2/1 19/3/1 20/4/1

