# Tiled2Unity generated file. Do not modify by hand.
# Wavefront file for 'S3-1-O_mesh_0015.obj'

# Vertices (Count = 24)
v -7.889109 -2.629703 0
v -8.217822 -2.629703 0
v -8.217822 -2.184159 0
v -7.889109 -2.184159 0
v -20.3802 -2.629703 0
v -20.70891 -2.629703 0
v -20.70891 -2.184159 0
v -20.3802 -2.184159 0
v -7.560396 -2.958416 0
v -7.889109 -2.958416 0
v -7.889109 -2.512871 0
v -7.560396 -2.512871 0
v -20.05149 -2.958416 0
v -20.3802 -2.958416 0
v -20.3802 -2.512871 0
v -20.05149 -2.512871 0
v -7.231683 -3.287129 0
v -7.560396 -3.287129 0
v -7.560396 -2.841584 0
v -7.231683 -2.841584 0
v -19.72277 -3.287129 0
v -20.05149 -3.287129 0
v -20.05149 -2.841584 0
v -19.72277 -2.841584 0

# Texture cooridinates (Count = 4)
vt 0 0
vt 1 0
vt 1 1
vt 0 1

# Normal
vn 0 0 -1

# Mesh description
g S3-1-O_mesh_0015

# Faces
f 1/1/1 2/2/1 3/3/1 4/4/1
f 5/1/1 6/2/1 7/3/1 8/4/1
f 9/1/1 10/2/1 11/3/1 12/4/1
f 13/1/1 14/2/1 15/3/1 16/4/1
f 17/1/1 18/2/1 19/3/1 20/4/1
f 21/1/1 22/2/1 23/3/1 24/4/1

