# Tiled2Unity generated file. Do not modify by hand.
# Wavefront file for 'S3-1-O_mesh_0010.obj'

# Vertices (Count = 16)
v -14.13465 -1.643564 0
v -14.46337 -1.643564 0
v -14.46337 -1.542574 0
v -14.13465 -1.542574 0
v -13.47723 -1.972277 0
v -13.80594 -1.972277 0
v -13.80594 -1.871287 0
v -13.47723 -1.871287 0
v -14.79208 -1.972277 0
v -15.12079 -1.972277 0
v -15.12079 -1.871287 0
v -14.79208 -1.871287 0
v -15.12079 -1.972277 0
v -15.44951 -1.972277 0
v -15.44951 -1.871287 0
v -15.12079 -1.871287 0

# Texture cooridinates (Count = 4)
vt 0 0
vt 1 0
vt 1 1
vt 0 1

# Normal
vn 0 0 -1

# Mesh description
g S3-1-O_mesh_0010

# Faces
f 1/1/1 2/2/1 3/3/1 4/4/1
f 5/1/1 6/2/1 7/3/1 8/4/1
f 9/1/1 10/2/1 11/3/1 12/4/1
f 13/1/1 14/2/1 15/3/1 16/4/1

