# Tiled2Unity generated file. Do not modify by hand.
# Wavefront file for 'S3-1-O_mesh_0014.obj'

# Vertices (Count = 24)
v -15.44951 -2.30099 0
v -15.77822 -2.30099 0
v -15.77822 -1.972277 0
v -15.44951 -1.972277 0
v -24.65347 -2.30099 0
v -24.98218 -2.30099 0
v -24.98218 -1.972277 0
v -24.65347 -1.972277 0
v -22.68119 -2.629703 0
v -23.0099 -2.629703 0
v -23.0099 -2.30099 0
v -22.68119 -2.30099 0
v -23.66733 -2.629703 0
v -23.99604 -2.629703 0
v -23.99604 -2.30099 0
v -23.66733 -2.30099 0
v -25.6396 -2.629703 0
v -25.96832 -2.629703 0
v -25.96832 -2.30099 0
v -25.6396 -2.30099 0
v -0.9861386 -3.287129 0
v -1.314852 -3.287129 0
v -1.314852 -2.958416 0
v -0.9861386 -2.958416 0

# Texture cooridinates (Count = 4)
vt 0 0
vt 1 0
vt 1 1
vt 0 1

# Normal
vn 0 0 -1

# Mesh description
g S3-1-O_mesh_0014

# Faces
f 1/1/1 2/2/1 3/3/1 4/4/1
f 5/1/1 6/2/1 7/3/1 8/4/1
f 9/1/1 10/2/1 11/3/1 12/4/1
f 13/1/1 14/2/1 15/3/1 16/4/1
f 17/1/1 18/2/1 19/3/1 20/4/1
f 21/1/1 22/2/1 23/3/1 24/4/1

