# Tiled2Unity generated file. Do not modify by hand.
# Wavefront file for 'S4-1-O_mesh_0003.obj'

# Vertices (Count = 16)
v -6640 -664 0
v -6806 -664 0
v -6806 -455 0
v -6640 -455 0
v -6474 -830 0
v -6640 -830 0
v -6640 -621 0
v -6474 -621 0
v -6308 -996 0
v -6474 -996 0
v -6474 -787 0
v -6308 -787 0
v -6142 -1162 0
v -6308 -1162 0
v -6308 -953 0
v -6142 -953 0

# Texture cooridinates (Count = 4)
vt 0 0
vt 1 0
vt 1 1
vt 0 1

# Normal
vn 0 0 -1

# Mesh description
g S4-1-O_mesh_0003

# Faces
f 1/1/1 2/2/1 3/3/1 4/4/1
f 5/1/1 6/2/1 7/3/1 8/4/1
f 9/1/1 10/2/1 11/3/1 12/4/1
f 13/1/1 14/2/1 15/3/1 16/4/1

