# Tiled2Unity generated file. Do not modify by hand.
# Wavefront file for 'S4-1-O_mesh_0012.obj'

# Vertices (Count = 16)
v -332 -4648 0
v -498 -4648 0
v -498 -4482 0
v -332 -4482 0
v -332 -4814 0
v -498 -4814 0
v -498 -4648 0
v -332 -4648 0
v -332 -4980 0
v -498 -4980 0
v -498 -4814 0
v -332 -4814 0
v -332 -5146 0
v -498 -5146 0
v -498 -4980 0
v -332 -4980 0

# Texture cooridinates (Count = 4)
vt 0 0
vt 1 0
vt 1 1
vt 0 1

# Normal
vn 0 0 -1

# Mesh description
g S4-1-O_mesh_0012

# Faces
f 1/1/1 2/2/1 3/3/1 4/4/1
f 5/1/1 6/2/1 7/3/1 8/4/1
f 9/1/1 10/2/1 11/3/1 12/4/1
f 13/1/1 14/2/1 15/3/1 16/4/1

