# Tiled2Unity generated file. Do not modify by hand.
# Wavefront file for 'S4-1-O_mesh_0016.obj'

# Vertices (Count = 36)
v -3486 -2324 0
v -3652 -2324 0
v -3652 -2099 0
v -3486 -2099 0
v -3320 -2490 0
v -3486 -2490 0
v -3486 -2265 0
v -3320 -2265 0
v -3154 -2656 0
v -3320 -2656 0
v -3320 -2431 0
v -3154 -2431 0
v -2988 -2822 0
v -3154 -2822 0
v -3154 -2597 0
v -2988 -2597 0
v -2490 -2988 0
v -2656 -2988 0
v -2656 -2763 0
v -2490 -2763 0
v -2324 -3154 0
v -2490 -3154 0
v -2490 -2929 0
v -2324 -2929 0
v -2158 -3320 0
v -2324 -3320 0
v -2324 -3095 0
v -2158 -3095 0
v -1992 -3486 0
v -2158 -3486 0
v -2158 -3261 0
v -1992 -3261 0
v -1826 -3652 0
v -1992 -3652 0
v -1992 -3427 0
v -1826 -3427 0

# Texture cooridinates (Count = 4)
vt 0 0
vt 1 0
vt 1 1
vt 0 1

# Normal
vn 0 0 -1

# Mesh description
g S4-1-O_mesh_0016

# Faces
f 1/1/1 2/2/1 3/3/1 4/4/1
f 5/1/1 6/2/1 7/3/1 8/4/1
f 9/1/1 10/2/1 11/3/1 12/4/1
f 13/1/1 14/2/1 15/3/1 16/4/1
f 17/1/1 18/2/1 19/3/1 20/4/1
f 21/1/1 22/2/1 23/3/1 24/4/1
f 25/1/1 26/2/1 27/3/1 28/4/1
f 29/1/1 30/2/1 31/3/1 32/4/1
f 33/1/1 34/2/1 35/3/1 36/4/1

