# Tiled2Unity generated file. Do not modify by hand.
# Wavefront file for 'S4-2-F_mesh_0044.obj'

# Vertices (Count = 28)
v -5644 -2656 0
v -5810 -2656 0
v -5810 -2490 0
v -5644 -2490 0
v -3320 -2822 0
v -3486 -2822 0
v -3486 -2656 0
v -3320 -2656 0
v -5644 -2822 0
v -5810 -2822 0
v -5810 -2656 0
v -5644 -2656 0
v -3320 -2988 0
v -3486 -2988 0
v -3486 -2822 0
v -3320 -2822 0
v -5644 -2988 0
v -5810 -2988 0
v -5810 -2822 0
v -5644 -2822 0
v -5644 -3154 0
v -5810 -3154 0
v -5810 -2988 0
v -5644 -2988 0
v -5644 -3320 0
v -5810 -3320 0
v -5810 -3154 0
v -5644 -3154 0

# Texture cooridinates (Count = 4)
vt 0 0
vt 1 0
vt 1 1
vt 0 1

# Normal
vn 0 0 -1

# Mesh description
g S4-2-F_mesh_0044

# Faces
f 1/1/1 2/2/1 3/3/1 4/4/1
f 5/1/1 6/2/1 7/3/1 8/4/1
f 9/1/1 10/2/1 11/3/1 12/4/1
f 13/1/1 14/2/1 15/3/1 16/4/1
f 17/1/1 18/2/1 19/3/1 20/4/1
f 21/1/1 22/2/1 23/3/1 24/4/1
f 25/1/1 26/2/1 27/3/1 28/4/1

