# Tiled2Unity generated file. Do not modify by hand.
# Wavefront file for 'S4-2-F_mesh_0046.obj'

# Vertices (Count = 24)
v -7138 -2656 0
v -7191 -2656 0
v -7191 -2490 0
v -7138 -2490 0
v -5312 -2822 0
v -5365 -2822 0
v -5365 -2656 0
v -5312 -2656 0
v -7138 -2822 0
v -7191 -2822 0
v -7191 -2656 0
v -7138 -2656 0
v -5312 -2988 0
v -5365 -2988 0
v -5365 -2822 0
v -5312 -2822 0
v -7138 -2988 0
v -7191 -2988 0
v -7191 -2822 0
v -7138 -2822 0
v -6640 -3320 0
v -6693 -3320 0
v -6693 -3154 0
v -6640 -3154 0

# Texture cooridinates (Count = 4)
vt 0 0
vt 1 0
vt 1 1
vt 0 1

# Normal
vn 0 0 -1

# Mesh description
g S4-2-F_mesh_0046

# Faces
f 1/1/1 2/2/1 3/3/1 4/4/1
f 5/1/1 6/2/1 7/3/1 8/4/1
f 9/1/1 10/2/1 11/3/1 12/4/1
f 13/1/1 14/2/1 15/3/1 16/4/1
f 17/1/1 18/2/1 19/3/1 20/4/1
f 21/1/1 22/2/1 23/3/1 24/4/1

