# Tiled2Unity generated file. Do not modify by hand.
# Wavefront file for 'S4-2-F_mesh_0008.obj'

# Vertices (Count = 96)
v -2822 -3818 0
v -2988 -3818 0
v -2988 -3773 0
v -2822 -3773 0
v -2988 -3818 0
v -3154 -3818 0
v -3154 -3773 0
v -2988 -3773 0
v -10292 -3984 0
v -10458 -3984 0
v -10458 -3939 0
v -10292 -3939 0
v -10458 -3984 0
v -10624 -3984 0
v -10624 -3939 0
v -10458 -3939 0
v -10624 -3984 0
v -10790 -3984 0
v -10790 -3939 0
v -10624 -3939 0
v -10790 -3984 0
v -10956 -3984 0
v -10956 -3939 0
v -10790 -3939 0
v -10956 -3984 0
v -11122 -3984 0
v -11122 -3939 0
v -10956 -3939 0
v -11122 -3984 0
v -11288 -3984 0
v -11288 -3939 0
v -11122 -3939 0
v -11288 -3984 0
v -11454 -3984 0
v -11454 -3939 0
v -11288 -3939 0
v -11454 -3984 0
v -11620 -3984 0
v -11620 -3939 0
v -11454 -3939 0
v -11620 -3984 0
v -11786 -3984 0
v -11786 -3939 0
v -11620 -3939 0
v -11786 -3984 0
v -11952 -3984 0
v -11952 -3939 0
v -11786 -3939 0
v -11952 -3984 0
v -12118 -3984 0
v -12118 -3939 0
v -11952 -3939 0
v -664 -4150 0
v -830 -4150 0
v -830 -4105 0
v -664 -4105 0
v -830 -4150 0
v -996 -4150 0
v -996 -4105 0
v -830 -4105 0
v -996 -4150 0
v -1162 -4150 0
v -1162 -4105 0
v -996 -4105 0
v -1162 -4150 0
v -1328 -4150 0
v -1328 -4105 0
v -1162 -4105 0
v -1328 -4150 0
v -1494 -4150 0
v -1494 -4105 0
v -1328 -4105 0
v -1494 -4150 0
v -1660 -4150 0
v -1660 -4105 0
v -1494 -4105 0
v -1660 -4150 0
v -1826 -4150 0
v -1826 -4105 0
v -1660 -4105 0
v -1826 -4150 0
v -1992 -4150 0
v -1992 -4105 0
v -1826 -4105 0
v -1992 -4150 0
v -2158 -4150 0
v -2158 -4105 0
v -1992 -4105 0
v -2158 -4150 0
v -2324 -4150 0
v -2324 -4105 0
v -2158 -4105 0
v -2324 -4150 0
v -2490 -4150 0
v -2490 -4105 0
v -2324 -4105 0

# Texture cooridinates (Count = 4)
vt 0 0
vt 1 0
vt 1 1
vt 0 1

# Normal
vn 0 0 -1

# Mesh description
g S4-2-F_mesh_0008

# Faces
f 1/1/1 2/2/1 3/3/1 4/4/1
f 5/1/1 6/2/1 7/3/1 8/4/1
f 9/1/1 10/2/1 11/3/1 12/4/1
f 13/1/1 14/2/1 15/3/1 16/4/1
f 17/1/1 18/2/1 19/3/1 20/4/1
f 21/1/1 22/2/1 23/3/1 24/4/1
f 25/1/1 26/2/1 27/3/1 28/4/1
f 29/1/1 30/2/1 31/3/1 32/4/1
f 33/1/1 34/2/1 35/3/1 36/4/1
f 37/1/1 38/2/1 39/3/1 40/4/1
f 41/1/1 42/2/1 43/3/1 44/4/1
f 45/1/1 46/2/1 47/3/1 48/4/1
f 49/1/1 50/2/1 51/3/1 52/4/1
f 53/1/1 54/2/1 55/3/1 56/4/1
f 57/1/1 58/2/1 59/3/1 60/4/1
f 61/1/1 62/2/1 63/3/1 64/4/1
f 65/1/1 66/2/1 67/3/1 68/4/1
f 69/1/1 70/2/1 71/3/1 72/4/1
f 73/1/1 74/2/1 75/3/1 76/4/1
f 77/1/1 78/2/1 79/3/1 80/4/1
f 81/1/1 82/2/1 83/3/1 84/4/1
f 85/1/1 86/2/1 87/3/1 88/4/1
f 89/1/1 90/2/1 91/3/1 92/4/1
f 93/1/1 94/2/1 95/3/1 96/4/1

