# Tiled2Unity generated file. Do not modify by hand.
# Wavefront file for 'S4-2-F_mesh_0031.obj'

# Vertices (Count = 16)
v -8300 -3486 0
v -8466 -3486 0
v -8466 -3280 0
v -8300 -3280 0
v -8466 -3652 0
v -8632 -3652 0
v -8632 -3446 0
v -8466 -3446 0
v -8632 -3818 0
v -8798 -3818 0
v -8798 -3612 0
v -8632 -3612 0
v -8798 -3984 0
v -8964 -3984 0
v -8964 -3778 0
v -8798 -3778 0

# Texture cooridinates (Count = 4)
vt 0 0
vt 1 0
vt 1 1
vt 0 1

# Normal
vn 0 0 -1

# Mesh description
g S4-2-F_mesh_0031

# Faces
f 1/1/1 2/2/1 3/3/1 4/4/1
f 5/1/1 6/2/1 7/3/1 8/4/1
f 9/1/1 10/2/1 11/3/1 12/4/1
f 13/1/1 14/2/1 15/3/1 16/4/1

