# Tiled2Unity generated file. Do not modify by hand.
# Wavefront file for 'S4-2-F_mesh_0030.obj'

# Vertices (Count = 16)
v -8134 -3486 0
v -8300 -3486 0
v -8300 -3277 0
v -8134 -3277 0
v -7968 -3652 0
v -8134 -3652 0
v -8134 -3443 0
v -7968 -3443 0
v -7802 -3818 0
v -7968 -3818 0
v -7968 -3609 0
v -7802 -3609 0
v -7636 -3984 0
v -7802 -3984 0
v -7802 -3775 0
v -7636 -3775 0

# Texture cooridinates (Count = 4)
vt 0 0
vt 1 0
vt 1 1
vt 0 1

# Normal
vn 0 0 -1

# Mesh description
g S4-2-F_mesh_0030

# Faces
f 1/1/1 2/2/1 3/3/1 4/4/1
f 5/1/1 6/2/1 7/3/1 8/4/1
f 9/1/1 10/2/1 11/3/1 12/4/1
f 13/1/1 14/2/1 15/3/1 16/4/1

