# Tiled2Unity generated file. Do not modify by hand.
# Wavefront file for 'Random-Block_mesh_0002.obj'

# Vertices (Count = 32)
v -2.958416 -0.6574258 0
v -3.287129 -0.6574258 0
v -3.287129 -0.5564356 0
v -2.958416 -0.5564356 0
v -2.629703 -0.6574258 0
v -2.958416 -0.6574258 0
v -2.958416 -0.5564356 0
v -2.629703 -0.5564356 0
v -2.30099 -0.6574258 0
v -2.629703 -0.6574258 0
v -2.629703 -0.5564356 0
v -2.30099 -0.5564356 0
v -1.972277 -0.6574258 0
v -2.30099 -0.6574258 0
v -2.30099 -0.5564356 0
v -1.972277 -0.5564356 0
v -1.643564 -0.6574258 0
v -1.972277 -0.6574258 0
v -1.972277 -0.5564356 0
v -1.643564 -0.5564356 0
v -1.314852 -0.6574258 0
v -1.643564 -0.6574258 0
v -1.643564 -0.5564356 0
v -1.314852 -0.5564356 0
v -0.9861386 -0.6574258 0
v -1.314852 -0.6574258 0
v -1.314852 -0.5564356 0
v -0.9861386 -0.5564356 0
v -0.6574258 -0.6574258 0
v -0.9861386 -0.6574258 0
v -0.9861386 -0.5564356 0
v -0.6574258 -0.5564356 0

# Texture cooridinates (Count = 4)
vt 0 0
vt 1 0
vt 1 1
vt 0 1

# Normal
vn 0 0 -1

# Mesh description
g Random-Block_mesh_0002

# Faces
f 1/1/1 2/2/1 3/3/1 4/4/1
f 5/1/1 6/2/1 7/3/1 8/4/1
f 9/1/1 10/2/1 11/3/1 12/4/1
f 13/1/1 14/2/1 15/3/1 16/4/1
f 17/1/1 18/2/1 19/3/1 20/4/1
f 21/1/1 22/2/1 23/3/1 24/4/1
f 25/1/1 26/2/1 27/3/1 28/4/1
f 29/1/1 30/2/1 31/3/1 32/4/1

